<svg xmlns="http://www.w3.org/2000/svg" width="26" height="23" viewBox="0 0 26 23">
  <metadata><?xpacket begin="﻿" id="W5M0MpCehiHzreSzNTczkc9d"?>
<x:xmpmeta xmlns:x="adobe:ns:meta/" x:xmptk="Adobe XMP Core 5.6-c138 79.159824, 2016/09/14-01:09:01        ">
   <rdf:RDF xmlns:rdf="http://www.w3.org/1999/02/22-rdf-syntax-ns#">
      <rdf:Description rdf:about=""/>
   </rdf:RDF>
</x:xmpmeta>
                                                                                                    
                                                                                                    
                                                                                                    
                                                                                                    
                                                                                                    
                                                                                                    
                                                                                                    
                                                                                                    
                                                                                                    
                                                                                                    
                                                                                                    
                                                                                                    
                                                                                                    
                                                                                                    
                                                                                                    
                                                                                                    
                                                                                                    
                                                                                                    
                                                                                                    
                                                                                                    
                           
<?xpacket end="w"?></metadata>
<defs>
    <style>
      .cls-1 {
        fill: #fff;
        fill-rule: evenodd;
      }
    </style>
  </defs>
  <path id="Forma_1" data-name="Forma 1" class="cls-1" d="M826.818,5194.71a0.566,0.566,0,0,0-.591.61v7.86a0.565,0.565,0,0,1-.591.61H804.364a0.565,0.565,0,0,1-.591-0.61v-7.86a0.591,0.591,0,1,0-1.182,0v7.86a1.765,1.765,0,0,0,1.773,1.82h21.272a1.765,1.765,0,0,0,1.773-1.82v-7.86A0.565,0.565,0,0,0,826.818,5194.71Zm-0.591-8.47H803.773a1.757,1.757,0,0,0-1.773,1.81v3.88a1.807,1.807,0,0,0,1.359,1.75l9.277,2.12v1.94a0.563,0.563,0,0,0,.591.6h3.546a0.563,0.563,0,0,0,.591-0.6v-1.94l9.277-2.12a1.807,1.807,0,0,0,1.359-1.75v-3.88A1.757,1.757,0,0,0,826.227,5186.24Zm-10.045,10.89h-2.364v-2.42h2.364v2.42Zm10.636-5.2a0.582,0.582,0,0,1-.473.6l-8.981,2.06v-0.48a0.566,0.566,0,0,0-.591-0.61h-3.546a0.566,0.566,0,0,0-.591.61v0.48l-8.982-2.06a0.582,0.582,0,0,1-.472-0.6v-3.88a0.562,0.562,0,0,1,.591-0.6h22.454a0.562,0.562,0,0,1,.591.6v3.88Zm-8.864-9.93h-5.909a1.765,1.765,0,0,0-1.772,1.82v0.6a0.591,0.591,0,1,0,1.181,0v-0.6a0.566,0.566,0,0,1,.591-0.61h5.909a0.565,0.565,0,0,1,.591.61v0.6a0.591,0.591,0,1,0,1.182,0v-0.6A1.765,1.765,0,0,0,817.954,5182Z" transform="translate(-802 -5182)"/>
</svg>
