<svg xmlns="http://www.w3.org/2000/svg" width="19" height="23" viewBox="0 0 19 23">
  <metadata><?xpacket begin="﻿" id="W5M0MpCehiHzreSzNTczkc9d"?>
<x:xmpmeta xmlns:x="adobe:ns:meta/" x:xmptk="Adobe XMP Core 5.6-c138 79.159824, 2016/09/14-01:09:01        ">
   <rdf:RDF xmlns:rdf="http://www.w3.org/1999/02/22-rdf-syntax-ns#">
      <rdf:Description rdf:about=""/>
   </rdf:RDF>
</x:xmpmeta>
                                                                                                    
                                                                                                    
                                                                                                    
                                                                                                    
                                                                                                    
                                                                                                    
                                                                                                    
                                                                                                    
                                                                                                    
                                                                                                    
                                                                                                    
                                                                                                    
                                                                                                    
                                                                                                    
                                                                                                    
                                                                                                    
                                                                                                    
                                                                                                    
                                                                                                    
                                                                                                    
                           
<?xpacket end="w"?></metadata>
<defs>
    <style>
      .cls-1 {
        fill: #fff;
        fill-rule: evenodd;
      }
    </style>
  </defs>
  <path class="cls-1" d="M1405.22,5183.93a2.485,2.485,0,0,0-.66.08l0.17,0.7a2.041,2.041,0,0,1,2.55,1.99c0,3.02-3.45,5.25-4.89,5.67l0.2,0.69c1.83-.54,5.41-3.02,5.41-6.36A2.778,2.778,0,0,0,1405.22,5183.93Zm-15.5,2.77a2.041,2.041,0,0,1,2.55-1.99l0.17-.7a2.774,2.774,0,0,0-3.44,2.69c0,3.34,3.58,5.82,5.41,6.36l0.2-.69C1393.17,5191.95,1389.72,5189.72,1389.72,5186.7Zm10.03,9.68h-2.5a0.359,0.359,0,0,0-.36.36v1.36a0.372,0.372,0,0,0,.13.28,0.4,0.4,0,0,0,.23.08,0.22,0.22,0,0,0,.08-0.01,5.764,5.764,0,0,1,2.34,0,0.382,0.382,0,0,0,.31-0.07,0.372,0.372,0,0,0,.13-0.28v-1.36A0.359,0.359,0,0,0,1399.75,5196.38Zm-0.36,1.29a6.631,6.631,0,0,0-1.78,0v-0.57h1.78v0.57Zm3.97,6.28h-9.72a0.359,0.359,0,0,0-.36.36v1.33a0.359,0.359,0,0,0,.36.36h9.72a0.359,0.359,0,0,0,.36-0.36v-1.33A0.359,0.359,0,0,0,1403.36,5203.95Zm-0.36,1.33h-9v-0.61h9v0.61Zm-0.26-6.39h-8.48a0.359,0.359,0,0,0-.36.36v5.06a0.359,0.359,0,0,0,.36.36h8.48a0.359,0.359,0,0,0,.36-0.36v-5.06A0.359,0.359,0,0,0,1402.74,5198.89Zm-0.36,5.06h-7.76v-4.34h7.76v4.34Zm-1.08-3.62h-5.6a0.359,0.359,0,0,0-.36.36v2.18a0.359,0.359,0,0,0,.36.36h5.6a0.359,0.359,0,0,0,.36-0.36v-2.18A0.359,0.359,0,0,0,1401.3,5200.33Zm-0.36,2.19h-4.88v-1.47h4.88v1.47Zm3.91-19.34a0.6,0.6,0,0,0-.43-0.18h-11.84a0.6,0.6,0,0,0-.43.18,0.641,0.641,0,0,0-.18.43c0.01,0.25.02,0.49,0.03,0.76l0.03,0.66a19.317,19.317,0,0,0,1.72,7.03,9.324,9.324,0,0,0,.45.83,6.858,6.858,0,0,0,2.46,2.61,0.373,0.373,0,0,0,.31.02h3.07a0.277,0.277,0,0,0,.13.03,0.337,0.337,0,0,0,.17-0.05,6.858,6.858,0,0,0,2.46-2.61,9.324,9.324,0,0,0,.45-0.83,19.317,19.317,0,0,0,1.72-7.03l0.03-.66c0.01-.25.02-0.5,0.03-0.76A0.6,0.6,0,0,0,1404.85,5183.18Zm-0.57,1.16c-0.01.22-.02,0.43-0.03,0.64a18.76,18.76,0,0,1-1.65,6.77q-0.195.405-.42,0.78a6.647,6.647,0,0,1-2.07,2.28h-3.22a6.55,6.55,0,0,1-2.07-2.28q-0.225-.375-0.42-0.78a18.76,18.76,0,0,1-1.65-6.77c-0.01-.21-0.02-0.42-0.03-0.67-0.01-.2-0.02-0.39-0.02-0.59h11.6C1404.3,5183.93,1404.29,5184.14,1404.28,5184.34Zm-1.45.22c-0.01.11-.01,0.22-0.02,0.32a16.4,16.4,0,0,1-1.43,5.91c-0.11.22-.23,0.44-0.35,0.65a5.458,5.458,0,0,1-1.38,1.62l0.41,0.59a6.145,6.145,0,0,0,1.59-1.84c0.13-.23.26-0.47,0.38-0.71a17.158,17.158,0,0,0,1.5-6.17c0.01-.11.01-0.22,0.02-0.34Zm-3.08,10.25h-2.52c-0.6,0-.66,1.17-0.66,1.18s0.07,1.11.68,1.11h2.52c0.59,0,.66-1.1.66-1.11S1400.37,5194.81,1399.75,5194.81Zm-0.13,1.57h-2.24a1.414,1.414,0,0,1-.09-0.39,1.989,1.989,0,0,1,.1-0.47h2.22a1.989,1.989,0,0,1,.1.47A1.908,1.908,0,0,1,1399.62,5196.38Zm0.21,1.37a6.619,6.619,0,0,0-2.66,0c-1.19.26-1.9,0.82-1.9,1.5a0.359,0.359,0,0,0,.36.36h5.74a0.359,0.359,0,0,0,.36-0.36C1401.73,5198.57,1401.02,5198.01,1399.83,5197.75Zm-3.59,1.14a2.908,2.908,0,0,1,1.09-.44,5.764,5.764,0,0,1,2.34,0,2.908,2.908,0,0,1,1.09.44h-4.52Z" transform="translate(-1389 -5183)"/>
</svg>
