<svg xmlns="http://www.w3.org/2000/svg" width="25.97" height="24" viewBox="0 0 25.97 24">
  <metadata><?xpacket begin="﻿" id="W5M0MpCehiHzreSzNTczkc9d"?>
<x:xmpmeta xmlns:x="adobe:ns:meta/" x:xmptk="Adobe XMP Core 5.6-c138 79.159824, 2016/09/14-01:09:01        ">
   <rdf:RDF xmlns:rdf="http://www.w3.org/1999/02/22-rdf-syntax-ns#">
      <rdf:Description rdf:about=""/>
   </rdf:RDF>
</x:xmpmeta>
                                                                                                    
                                                                                                    
                                                                                                    
                                                                                                    
                                                                                                    
                                                                                                    
                                                                                                    
                                                                                                    
                                                                                                    
                                                                                                    
                                                                                                    
                                                                                                    
                                                                                                    
                                                                                                    
                                                                                                    
                                                                                                    
                                                                                                    
                                                                                                    
                                                                                                    
                                                                                                    
                           
<?xpacket end="w"?></metadata>
<defs>
    <style>
      .cls-1 {
        fill: #fff;
        fill-rule: evenodd;
      }
    </style>
  </defs>
  <path id="Forma_1" data-name="Forma 1" class="cls-1" d="M1094.73,5194.26l-0.03-.09a0.405,0.405,0,0,0-.05-0.09,0.374,0.374,0,0,0-.06-0.07,0.156,0.156,0,0,0-.08-0.06,0.218,0.218,0,0,0-.08-0.05c-0.03-.01-0.07-0.02-0.1-0.03a0.669,0.669,0,0,0-.2,0l-0.09.03a0.405,0.405,0,0,0-.09.05,0.21,0.21,0,0,0-.08.06c-0.02.02-.04,0.05-0.06,0.07s-0.03.06-.05,0.09a0.292,0.292,0,0,0-.02.09,0.34,0.34,0,0,0-.01.1,0.375,0.375,0,0,0,.01.1,0.292,0.292,0,0,0,.02.09,1.145,1.145,0,0,0,.11.16c0.03,0.02.05,0.04,0.08,0.06s0.06,0.03.09,0.05a0.292,0.292,0,0,0,.09.02,0.375,0.375,0,0,0,.1.01,0.308,0.308,0,0,0,.1-0.01,0.355,0.355,0,0,0,.1-0.02,1.145,1.145,0,0,0,.16-0.11,0.241,0.241,0,0,0,.06-0.08,0.218,0.218,0,0,0,.05-0.08l0.03-.09a0.375,0.375,0,0,0,.01-0.1A0.34,0.34,0,0,0,1094.73,5194.26Zm16.32-7.03a0.161,0.161,0,0,0-.03-0.09,0.355,0.355,0,0,0-.04-0.09,0.462,0.462,0,0,0-.07-0.07,0.187,0.187,0,0,0-.07-0.06,0.405,0.405,0,0,0-.09-0.05c-0.03-.01-0.06-0.02-0.1-0.03a0.605,0.605,0,0,0-.19,0c-0.04.01-.07,0.02-0.1,0.03a0.405,0.405,0,0,0-.09.05,0.187,0.187,0,0,0-.07.06,0.462,0.462,0,0,0-.07.07c-0.01.03-.03,0.06-0.04,0.09a0.318,0.318,0,0,0-.03.09,0.34,0.34,0,0,0-.01.1,0.375,0.375,0,0,0,.01.1,0.318,0.318,0,0,0,.03.09,0.594,0.594,0,0,0,.04.08,0.27,0.27,0,0,0,.07.08c0.02,0.02.05,0.04,0.07,0.06s0.06,0.03.09,0.05a0.3,0.3,0,0,0,.1.02,0.308,0.308,0,0,0,.1.01,0.277,0.277,0,0,0,.09-0.01,0.3,0.3,0,0,0,.1-0.02c0.03-.02.06-0.03,0.09-0.05s0.05-.04.07-0.06a0.27,0.27,0,0,0,.07-0.08,0.2,0.2,0,0,0,.04-0.08,0.161,0.161,0,0,0,.03-0.09,0.375,0.375,0,0,0,.01-0.1A0.34,0.34,0,0,0,1111.05,5187.23Zm-5.07,1.71a5.061,5.061,0,1,0,5.18,5.06A5.122,5.122,0,0,0,1105.98,5188.94Zm0,9.13a4.071,4.071,0,1,1,4.16-4.07A4.126,4.126,0,0,1,1105.98,5198.07Zm0-7.13a3.061,3.061,0,1,0,3.13,3.06A3.1,3.1,0,0,0,1105.98,5190.94Zm0,5.13a2.071,2.071,0,1,1,2.12-2.07A2.1,2.1,0,0,1,1105.98,5196.07Zm6.4-7.86a0.514,0.514,0,0,0-.71-0.03,0.484,0.484,0,0,0-.03.7,7.449,7.449,0,0,1,2.05,5.12,7.613,7.613,0,0,1-5.62,7.26,2.2,2.2,0,0,0-4.17,0,7.5,7.5,0,0,1,0-14.52,2.123,2.123,0,1,0-.07-1.01,8.783,8.783,0,0,0-4.6,2.88,8.37,8.37,0,0,0,.01,10.8,8.824,8.824,0,0,0,4.59,2.86,2.193,2.193,0,0,0,4.3,0,8.868,8.868,0,0,0,4.6-2.87A8.385,8.385,0,0,0,1112.38,5188.21Zm-6.4-3.25a1.145,1.145,0,1,1-1.17,1.15A1.161,1.161,0,0,1,1105.98,5184.96Zm0,18.08a1.145,1.145,0,1,1,0-2.29A1.145,1.145,0,1,1,1105.98,5203.04Zm11.95-6.31a11.916,11.916,0,0,0,.32-2.73,12.146,12.146,0,0,0-12.27-12,12.317,12.317,0,0,0-10.23,5.39,2.195,2.195,0,0,0-2.57,1.22,2.119,2.119,0,0,0,1.14,2.81,2.352,2.352,0,0,0,.86.17,2.187,2.187,0,0,0,2.01-1.29,2.109,2.109,0,0,0-.54-2.43,11.282,11.282,0,0,1,9.33-4.88,11.141,11.141,0,0,1,11.25,11.01,10.881,10.881,0,0,1-.27,2.42,2.177,2.177,0,0,0-2.18,1.28,2.109,2.109,0,0,0,.54,2.43,11.331,11.331,0,0,1-20.38-4.01,0.5,0.5,0,0,0-.59-0.39,0.485,0.485,0,0,0-.4.58,12.207,12.207,0,0,0,12.03,9.69,12.328,12.328,0,0,0,10.24-5.39,2.1,2.1,0,0,0,.56.07,2.187,2.187,0,0,0,2.01-1.29A2.108,2.108,0,0,0,1117.93,5196.73Zm-21.67-6.82a1.182,1.182,0,0,1-1.54.59,1.126,1.126,0,0,1-.61-1.5,1.174,1.174,0,0,1,1.08-.69,1.254,1.254,0,0,1,.46.09A1.149,1.149,0,0,1,1096.26,5189.91Zm21.6,9.09a1.187,1.187,0,0,1-1.54.6h0a1.149,1.149,0,0,1-.61-1.51,1.189,1.189,0,0,1,1.54-.6A1.149,1.149,0,0,1,1117.86,5199Z" transform="translate(-1093 -5182)"/>
</svg>
