<svg xmlns="http://www.w3.org/2000/svg" width="26" height="23" viewBox="0 0 26 23">
  <metadata><?xpacket begin="﻿" id="W5M0MpCehiHzreSzNTczkc9d"?>
<x:xmpmeta xmlns:x="adobe:ns:meta/" x:xmptk="Adobe XMP Core 5.6-c138 79.159824, 2016/09/14-01:09:01        ">
   <rdf:RDF xmlns:rdf="http://www.w3.org/1999/02/22-rdf-syntax-ns#">
      <rdf:Description rdf:about=""/>
   </rdf:RDF>
</x:xmpmeta>
                                                                                                    
                                                                                                    
                                                                                                    
                                                                                                    
                                                                                                    
                                                                                                    
                                                                                                    
                                                                                                    
                                                                                                    
                                                                                                    
                                                                                                    
                                                                                                    
                                                                                                    
                                                                                                    
                                                                                                    
                                                                                                    
                                                                                                    
                                                                                                    
                                                                                                    
                                                                                                    
                           
<?xpacket end="w"?></metadata>
<defs>
    <style>
      .cls-1 {
        fill: #fff;
        fill-rule: evenodd;
      }
    </style>
  </defs>
  <path id="Forma_1" data-name="Forma 1" class="cls-1" d="M514.443,5186.63a0.51,0.51,0,1,1-.507.51A0.51,0.51,0,0,1,514.443,5186.63Zm-2.638-.51a6.232,6.232,0,0,1,4.733-2.12,7.332,7.332,0,0,1,5.31,2.26A9.124,9.124,0,0,1,523,5187.7a9.169,9.169,0,0,1,1.151-1.44,7.334,7.334,0,0,1,5.311-2.26c3.852,0,6.538,3.23,6.538,7.07,0,5.19-5.485,9.56-12.668,15.81a0.521,0.521,0,0,1-.665,0c-7.2-6.26-12.667-10.62-12.667-15.81A7.419,7.419,0,0,1,511.805,5186.12ZM523,5205.82c6.783-5.89,11.984-10.12,11.984-14.75,0-3.45-2.374-6.05-5.522-6.05a6.268,6.268,0,0,0-4.564,1.93,7.635,7.635,0,0,0-1.435,1.99,0.51,0.51,0,0,1-.462.3h0a0.512,0.512,0,0,1-.463-0.3,7.635,7.635,0,0,0-1.435-1.99,6.268,6.268,0,0,0-4.564-1.93c-3.148,0-5.522,2.6-5.522,6.05C511.016,5195.81,516.56,5200.23,523,5205.82Zm-10.333-17.37a0.508,0.508,0,1,1,.9.47,4.693,4.693,0,0,0-.52,2.15c0,1.47.7,3.04,2.2,4.92a0.507,0.507,0,0,1-.794.63c-1.651-2.07-2.42-3.83-2.42-5.55A5.652,5.652,0,0,1,512.667,5188.45Z" transform="translate(-510 -5184)"/>
</svg>
